<svg xmlns="http://www.w3.org/2000/svg" xmlns:svg="http://www.w3.org/2000/svg" xmlns:xlink="http://www.w3.org/1999/xlink" id="svg2436" width="500" height="500" version="1.0"><defs id="defs2438"><linearGradient id="linearGradient5289"><stop id="stop5291" offset="0" stop-color="#565858" stop-opacity="1"/><stop id="stop5293" offset="1" stop-color="#565858" stop-opacity="0"/></linearGradient><linearGradient id="linearGradient5981" x1="1126.825" x2="1126.825" y1="637.729" y2="611.396" gradientUnits="userSpaceOnUse" xlink:href="#linearGradient5289"/><linearGradient id="linearGradient5247"><stop id="stop5249" offset="0" stop-color="#fcfcfc" stop-opacity="1"/><stop id="stop5251" offset="1" stop-color="#b2b2b2" stop-opacity=".984"/></linearGradient><radialGradient id="radialGradient5979" cx="1150.564" cy="442.23" r="79.282" fx="1150.564" fy="442.23" gradientUnits="userSpaceOnUse" xlink:href="#linearGradient5247"/><linearGradient id="linearGradient5307"><stop id="stop5309" offset="0" stop-color="#878789" stop-opacity="1"/><stop id="stop5313" offset=".057" stop-color="#8e8e90" stop-opacity="1"/><stop id="stop5315" offset=".341" stop-color="#212122" stop-opacity="1"/><stop id="stop5311" offset="1" stop-color="#000" stop-opacity="1"/></linearGradient><linearGradient id="linearGradient5977" x1="1156.858" x2="1229.845" y1="422.673" y2="478.596" gradientUnits="userSpaceOnUse" xlink:href="#linearGradient5307"/></defs><metadata id="metadata2441"/><g id="layer1" transform="translate(-272.85718,-545.21932)"><path id="background" fill="url(#linearGradient5977)" fill-opacity="1" fill-rule="evenodd" stroke="#00dcff" stroke-dasharray="none" stroke-dashoffset="0" stroke-linecap="round" stroke-linejoin="round" stroke-miterlimit="4" stroke-opacity="1" stroke-width="3" d="M 1228.3455,442.23004 A 77.781746,77.781746 0 1 1 1072.782,442.23004 A 77.781746,77.781746 0 1 1 1228.3455,442.23004 z" transform="matrix(3.153311,0,0,3.153311,-3105.2281,-599.26954)"/><g id="foreground" transform="matrix(3.153311,0,0,3.153311,-3477.9111,-1115.2922)"><path id="path5245" fill="url(#radialGradient5979)" fill-opacity="1" fill-rule="evenodd" stroke="#00dcff" stroke-dasharray="none" stroke-dashoffset="0" stroke-linecap="round" stroke-linejoin="round" stroke-miterlimit="4" stroke-opacity="1" stroke-width="1.163" d="M 1228.3455,442.23004 A 77.781746,77.781746 0 1 1 1072.782,442.23004 A 77.781746,77.781746 0 1 1 1228.3455,442.23004 z" opacity="1" transform="matrix(0.8190067,0.2618446,-0.2618446,0.8190067,442.22772,-57.583524)"/><path id="path5271" fill="url(#linearGradient5981)" fill-opacity="1" fill-rule="evenodd" stroke="#00dcff" stroke-dasharray="none" stroke-dashoffset="0" stroke-linecap="round" stroke-linejoin="round" stroke-miterlimit="4" stroke-opacity="1" stroke-width="2" d="M 1138.4419,624.56256 A 11.616755,11.616755 0 1 1 1115.2084,624.56256 A 11.616755,11.616755 0 1 1 1138.4419,624.56256 z" opacity="1" transform="matrix(0.9525043,0.3045251,-0.3045251,0.9525043,385.6407,-378.29573)"/></g></g></svg>